<svg xmlns="http://www.w3.org/2000/svg" xmlns:xlink="http://www.w3.org/1999/xlink" width="1000" zoomAndPan="magnify" viewBox="0 0 750 749.999995" height="1000" preserveAspectRatio="xMidYMid meet" version="1.0"><defs><g/><clipPath id="df92db9723"><path d="M 124.355469 304.335938 L 147 304.335938 L 147 329.835938 L 124.355469 329.835938 Z M 124.355469 304.335938 " clip-rule="nonzero"/></clipPath><clipPath id="104a3b94fe"><path d="M 139 319 L 147.605469 319 L 147.605469 329 L 139 329 Z M 139 319 " clip-rule="nonzero"/></clipPath><clipPath id="2f653e67b3"><path d="M 124.355469 304.335938 L 133 304.335938 L 133 315 L 124.355469 315 Z M 124.355469 304.335938 " clip-rule="nonzero"/></clipPath></defs><g fill="#ffffff" fill-opacity="1"><g transform="translate(22.640504, 432.749999)"><g><path d="M 83.65625 -116.78125 L 83.65625 -97.875 L 34.96875 -97.875 L 34.96875 -67.921875 L 72.28125 -67.921875 L 72.28125 -49.359375 L 34.96875 -49.359375 L 34.96875 0 L 11.546875 0 L 11.546875 -116.78125 Z M 83.65625 -116.78125 "/></g></g></g><g fill="#ffffff" fill-opacity="1"><g transform="translate(111.314015, 432.749999)"><g><path d="M 35.96875 -92.6875 L 35.96875 0 L 12.546875 0 L 12.546875 -92.6875 Z M 35.96875 -92.6875 "/></g></g></g><g fill="#ffffff" fill-opacity="1"><g transform="translate(159.833483, 432.749999)"><g><path d="M 47.84375 -94.203125 C 54.757812 -94.203125 60.835938 -92.832031 66.078125 -90.09375 C 71.328125 -87.363281 75.457031 -83.820312 78.46875 -79.46875 L 78.46875 -92.6875 L 102.0625 -92.6875 L 102.0625 0.671875 C 102.0625 9.253906 100.332031 16.921875 96.875 23.671875 C 93.414062 30.421875 88.226562 35.773438 81.3125 39.734375 C 74.394531 43.691406 66.03125 45.671875 56.21875 45.671875 C 43.050781 45.671875 32.253906 42.601562 23.828125 36.46875 C 15.410156 30.332031 10.644531 21.96875 9.53125 11.375 L 32.796875 11.375 C 34.023438 15.613281 36.671875 18.988281 40.734375 21.5 C 44.804688 24.007812 49.742188 25.265625 55.546875 25.265625 C 62.347656 25.265625 67.867188 23.226562 72.109375 19.15625 C 76.347656 15.082031 78.46875 8.921875 78.46875 0.671875 L 78.46875 -13.71875 C 75.457031 -9.363281 71.300781 -5.738281 66 -2.84375 C 60.707031 0.0507812 54.65625 1.5 47.84375 1.5 C 40.039062 1.5 32.90625 -0.503906 26.4375 -4.515625 C 19.96875 -8.535156 14.863281 -14.195312 11.125 -21.5 C 7.382812 -28.800781 5.515625 -37.195312 5.515625 -46.6875 C 5.515625 -56.050781 7.382812 -64.359375 11.125 -71.609375 C 14.863281 -78.859375 19.9375 -84.4375 26.34375 -88.34375 C 32.757812 -92.25 39.925781 -94.203125 47.84375 -94.203125 Z M 78.46875 -46.34375 C 78.46875 -52.03125 77.351562 -56.910156 75.125 -60.984375 C 72.894531 -65.054688 69.882812 -68.179688 66.09375 -70.359375 C 62.300781 -72.535156 58.226562 -73.625 53.875 -73.625 C 49.519531 -73.625 45.503906 -72.5625 41.828125 -70.4375 C 38.148438 -68.320312 35.164062 -65.226562 32.875 -61.15625 C 30.59375 -57.082031 29.453125 -52.257812 29.453125 -46.6875 C 29.453125 -41.101562 30.59375 -36.21875 32.875 -32.03125 C 35.164062 -27.851562 38.175781 -24.648438 41.90625 -22.421875 C 45.644531 -20.191406 49.632812 -19.078125 53.875 -19.078125 C 58.226562 -19.078125 62.300781 -20.160156 66.09375 -22.328125 C 69.882812 -24.503906 72.894531 -27.628906 75.125 -31.703125 C 77.351562 -35.773438 78.46875 -40.65625 78.46875 -46.34375 Z M 78.46875 -46.34375 "/></g></g></g><g fill="#ffffff" fill-opacity="1"><g transform="translate(273.268643, 432.749999)"><g><path d="M 126.65625 -94.03125 C 138.03125 -94.03125 147.203125 -90.539062 154.171875 -83.5625 C 161.148438 -76.59375 164.640625 -66.863281 164.640625 -54.375 L 164.640625 0 L 141.21875 0 L 141.21875 -51.203125 C 141.21875 -58.453125 139.375 -64 135.6875 -67.84375 C 132.007812 -71.695312 126.988281 -73.625 120.625 -73.625 C 114.269531 -73.625 109.222656 -71.695312 105.484375 -67.84375 C 101.753906 -64 99.890625 -58.453125 99.890625 -51.203125 L 99.890625 0 L 76.46875 0 L 76.46875 -51.203125 C 76.46875 -58.453125 74.625 -64 70.9375 -67.84375 C 67.257812 -71.695312 62.238281 -73.625 55.875 -73.625 C 49.40625 -73.625 44.300781 -71.695312 40.5625 -67.84375 C 36.832031 -64 34.96875 -58.453125 34.96875 -51.203125 L 34.96875 0 L 11.546875 0 L 11.546875 -92.6875 L 34.96875 -92.6875 L 34.96875 -81.484375 C 37.976562 -85.390625 41.851562 -88.457031 46.59375 -90.6875 C 51.332031 -92.914062 56.546875 -94.03125 62.234375 -94.03125 C 69.484375 -94.03125 75.953125 -92.492188 81.640625 -89.421875 C 87.335938 -86.359375 91.742188 -81.984375 94.859375 -76.296875 C 97.878906 -81.648438 102.257812 -85.941406 108 -89.171875 C 113.738281 -92.410156 119.957031 -94.03125 126.65625 -94.03125 Z M 126.65625 -94.03125 "/></g></g></g><g fill="#ffffff" fill-opacity="1"><g transform="translate(448.607939, 432.749999)"><g><path d="M 97.703125 -48.359375 C 97.703125 -45.003906 97.484375 -41.988281 97.046875 -39.3125 L 29.28125 -39.3125 C 29.832031 -32.625 32.171875 -27.382812 36.296875 -23.59375 C 40.429688 -19.800781 45.507812 -17.90625 51.53125 -17.90625 C 60.226562 -17.90625 66.421875 -21.640625 70.109375 -29.109375 L 95.375 -29.109375 C 92.695312 -20.191406 87.5625 -12.859375 79.96875 -7.109375 C 72.382812 -1.367188 63.070312 1.5 52.03125 1.5 C 43.113281 1.5 35.113281 -0.476562 28.03125 -4.4375 C 20.945312 -8.394531 15.421875 -14 11.453125 -21.25 C 7.492188 -28.5 5.515625 -36.863281 5.515625 -46.34375 C 5.515625 -55.9375 7.46875 -64.359375 11.375 -71.609375 C 15.28125 -78.859375 20.742188 -84.4375 27.765625 -88.34375 C 34.796875 -92.25 42.882812 -94.203125 52.03125 -94.203125 C 60.84375 -94.203125 68.734375 -92.300781 75.703125 -88.5 C 82.679688 -84.707031 88.09375 -79.328125 91.9375 -72.359375 C 95.78125 -65.390625 97.703125 -57.390625 97.703125 -48.359375 Z M 73.453125 -55.046875 C 73.335938 -61.066406 71.160156 -65.890625 66.921875 -69.515625 C 62.679688 -73.140625 57.492188 -74.953125 51.359375 -74.953125 C 45.566406 -74.953125 40.6875 -73.195312 36.71875 -69.6875 C 32.757812 -66.175781 30.335938 -61.296875 29.453125 -55.046875 Z M 73.453125 -55.046875 "/></g></g></g><g fill="#ffffff" fill-opacity="1"><g transform="translate(551.837304, 432.749999)"><g><path d="M 62.90625 -94.03125 C 73.945312 -94.03125 82.867188 -90.539062 89.671875 -83.5625 C 96.484375 -76.59375 99.890625 -66.863281 99.890625 -54.375 L 99.890625 0 L 76.46875 0 L 76.46875 -51.203125 C 76.46875 -58.554688 74.625 -64.210938 70.9375 -68.171875 C 67.257812 -72.140625 62.238281 -74.125 55.875 -74.125 C 49.40625 -74.125 44.300781 -72.140625 40.5625 -68.171875 C 36.832031 -64.210938 34.96875 -58.554688 34.96875 -51.203125 L 34.96875 0 L 11.546875 0 L 11.546875 -92.6875 L 34.96875 -92.6875 L 34.96875 -81.140625 C 38.09375 -85.160156 42.078125 -88.3125 46.921875 -90.59375 C 51.773438 -92.882812 57.101562 -94.03125 62.90625 -94.03125 Z M 62.90625 -94.03125 "/></g></g></g><g fill="#ffffff" fill-opacity="1"><g transform="translate(662.428195, 432.749999)"><g><path d="M 38.8125 -73.453125 L 38.8125 -28.609375 C 38.8125 -25.484375 39.5625 -23.222656 41.0625 -21.828125 C 42.570312 -20.441406 45.113281 -19.75 48.6875 -19.75 L 59.5625 -19.75 L 59.5625 0 L 44.84375 0 C 25.09375 0 15.21875 -9.59375 15.21875 -28.78125 L 15.21875 -73.453125 L 4.1875 -73.453125 L 4.1875 -92.6875 L 15.21875 -92.6875 L 15.21875 -115.609375 L 38.8125 -115.609375 L 38.8125 -92.6875 L 59.5625 -92.6875 L 59.5625 -73.453125 Z M 38.8125 -73.453125 "/></g></g></g><g clip-path="url(#df92db9723)"><path fill="#ffffff" d="M 146.667969 317.132812 L 146.695312 317.085938 C 146.695312 317.085938 139.730469 317.0625 137.839844 314.816406 C 136.011719 312.644531 135.597656 306.648438 135.519531 304.402344 C 135.445312 306.648438 135.035156 312.644531 133.210938 314.816406 C 131.320312 317.0625 124.355469 317.085938 124.355469 317.085938 L 124.386719 317.132812 L 124.355469 317.164062 C 124.355469 317.164062 131.320312 317.171875 133.210938 319.417969 C 135.035156 321.589844 135.445312 327.589844 135.519531 329.835938 C 135.597656 327.589844 136.011719 321.589844 137.839844 319.417969 C 139.726562 317.171875 146.695312 317.164062 146.695312 317.164062 Z M 146.667969 317.132812 " fill-opacity="1" fill-rule="nonzero"/></g><g clip-path="url(#104a3b94fe)"><path fill="#ffffff" d="M 147.601562 323.917969 C 147.601562 323.917969 144.921875 323.910156 144.191406 323.046875 C 143.492188 322.210938 143.328125 319.90625 143.300781 319.042969 C 143.273438 319.90625 143.117188 322.214844 142.414062 323.046875 C 141.6875 323.910156 139.007812 323.917969 139.007812 323.917969 L 139.019531 323.933594 L 139.007812 323.945312 C 139.007812 323.945312 141.6875 323.949219 142.414062 324.8125 C 143.113281 325.648438 143.273438 327.953125 143.300781 328.816406 C 143.332031 327.953125 143.492188 325.644531 144.191406 324.8125 C 144.917969 323.949219 147.601562 323.945312 147.601562 323.945312 L 147.589844 323.933594 Z M 147.601562 323.917969 " fill-opacity="1" fill-rule="nonzero"/></g><g clip-path="url(#2f653e67b3)"><path fill="#ffffff" d="M 127.765625 310.105469 C 128.46875 310.941406 128.625 313.246094 128.65625 314.109375 C 128.6875 313.246094 128.84375 310.9375 129.546875 310.105469 C 130.269531 309.242188 132.953125 309.238281 132.953125 309.238281 L 132.941406 309.226562 L 132.953125 309.210938 C 132.953125 309.210938 130.273438 309.203125 129.546875 308.339844 C 128.84375 307.503906 128.683594 305.199219 128.65625 304.335938 C 128.625 305.199219 128.472656 307.507812 127.765625 308.339844 C 127.039062 309.203125 124.359375 309.210938 124.359375 309.210938 L 124.371094 309.226562 L 124.359375 309.238281 C 124.355469 309.238281 127.035156 309.242188 127.765625 310.105469 Z M 127.765625 310.105469 " fill-opacity="1" fill-rule="nonzero"/></g></svg>